%TF.GenerationSoftware,KiCad,Pcbnew,8.0.8*%
%TF.CreationDate,2025-03-09T17:06:29-04:00*%
%TF.ProjectId,PreAmpEQ,50726541-6d70-4455-912e-6b696361645f,1.1*%
%TF.SameCoordinates,Original*%
%TF.FileFunction,Drillmap*%
%TF.FilePolarity,Positive*%
%FSLAX45Y45*%
G04 Gerber Fmt 4.5, Leading zero omitted, Abs format (unit mm)*
G04 Created by KiCad (PCBNEW 8.0.8) date 2025-03-09 17:06:29*
%MOMM*%
%LPD*%
G01*
G04 APERTURE LIST*
%ADD10C,0.050000*%
%ADD11C,0.200000*%
%ADD12C,0.320000*%
G04 APERTURE END LIST*
D10*
X7975600Y-3962400D02*
X21971000Y-3962400D01*
X21971000Y-13182600D01*
X7975600Y-13182600D01*
X7975600Y-3962400D01*
D11*
D12*
X8298200Y-4285000D02*
X8618200Y-4605000D01*
X8618200Y-4285000D02*
X8298200Y-4605000D01*
X8298200Y-12565400D02*
X8618200Y-12885400D01*
X8618200Y-12565400D02*
X8298200Y-12885400D01*
X21328400Y-4259600D02*
X21648400Y-4579600D01*
X21648400Y-4259600D02*
X21328400Y-4579600D01*
X21353800Y-12565400D02*
X21673800Y-12885400D01*
X21673800Y-12565400D02*
X21353800Y-12885400D01*
D11*
X8233877Y-13496584D02*
X8233877Y-13296584D01*
X8233877Y-13296584D02*
X8281496Y-13296584D01*
X8281496Y-13296584D02*
X8310067Y-13306108D01*
X8310067Y-13306108D02*
X8329115Y-13325155D01*
X8329115Y-13325155D02*
X8338639Y-13344203D01*
X8338639Y-13344203D02*
X8348162Y-13382298D01*
X8348162Y-13382298D02*
X8348162Y-13410869D01*
X8348162Y-13410869D02*
X8338639Y-13448965D01*
X8338639Y-13448965D02*
X8329115Y-13468012D01*
X8329115Y-13468012D02*
X8310067Y-13487060D01*
X8310067Y-13487060D02*
X8281496Y-13496584D01*
X8281496Y-13496584D02*
X8233877Y-13496584D01*
X8433877Y-13496584D02*
X8433877Y-13363250D01*
X8433877Y-13401346D02*
X8443401Y-13382298D01*
X8443401Y-13382298D02*
X8452924Y-13372774D01*
X8452924Y-13372774D02*
X8471972Y-13363250D01*
X8471972Y-13363250D02*
X8491020Y-13363250D01*
X8557686Y-13496584D02*
X8557686Y-13363250D01*
X8557686Y-13296584D02*
X8548163Y-13306108D01*
X8548163Y-13306108D02*
X8557686Y-13315631D01*
X8557686Y-13315631D02*
X8567210Y-13306108D01*
X8567210Y-13306108D02*
X8557686Y-13296584D01*
X8557686Y-13296584D02*
X8557686Y-13315631D01*
X8681496Y-13496584D02*
X8662448Y-13487060D01*
X8662448Y-13487060D02*
X8652924Y-13468012D01*
X8652924Y-13468012D02*
X8652924Y-13296584D01*
X8786258Y-13496584D02*
X8767210Y-13487060D01*
X8767210Y-13487060D02*
X8757686Y-13468012D01*
X8757686Y-13468012D02*
X8757686Y-13296584D01*
X9014829Y-13496584D02*
X9014829Y-13296584D01*
X9014829Y-13296584D02*
X9081496Y-13439441D01*
X9081496Y-13439441D02*
X9148163Y-13296584D01*
X9148163Y-13296584D02*
X9148163Y-13496584D01*
X9329115Y-13496584D02*
X9329115Y-13391822D01*
X9329115Y-13391822D02*
X9319591Y-13372774D01*
X9319591Y-13372774D02*
X9300544Y-13363250D01*
X9300544Y-13363250D02*
X9262448Y-13363250D01*
X9262448Y-13363250D02*
X9243401Y-13372774D01*
X9329115Y-13487060D02*
X9310067Y-13496584D01*
X9310067Y-13496584D02*
X9262448Y-13496584D01*
X9262448Y-13496584D02*
X9243401Y-13487060D01*
X9243401Y-13487060D02*
X9233877Y-13468012D01*
X9233877Y-13468012D02*
X9233877Y-13448965D01*
X9233877Y-13448965D02*
X9243401Y-13429917D01*
X9243401Y-13429917D02*
X9262448Y-13420393D01*
X9262448Y-13420393D02*
X9310067Y-13420393D01*
X9310067Y-13420393D02*
X9329115Y-13410869D01*
X9424353Y-13363250D02*
X9424353Y-13563250D01*
X9424353Y-13372774D02*
X9443401Y-13363250D01*
X9443401Y-13363250D02*
X9481496Y-13363250D01*
X9481496Y-13363250D02*
X9500544Y-13372774D01*
X9500544Y-13372774D02*
X9510067Y-13382298D01*
X9510067Y-13382298D02*
X9519591Y-13401346D01*
X9519591Y-13401346D02*
X9519591Y-13458488D01*
X9519591Y-13458488D02*
X9510067Y-13477536D01*
X9510067Y-13477536D02*
X9500544Y-13487060D01*
X9500544Y-13487060D02*
X9481496Y-13496584D01*
X9481496Y-13496584D02*
X9443401Y-13496584D01*
X9443401Y-13496584D02*
X9424353Y-13487060D01*
X9605305Y-13477536D02*
X9614829Y-13487060D01*
X9614829Y-13487060D02*
X9605305Y-13496584D01*
X9605305Y-13496584D02*
X9595782Y-13487060D01*
X9595782Y-13487060D02*
X9605305Y-13477536D01*
X9605305Y-13477536D02*
X9605305Y-13496584D01*
X9605305Y-13372774D02*
X9614829Y-13382298D01*
X9614829Y-13382298D02*
X9605305Y-13391822D01*
X9605305Y-13391822D02*
X9595782Y-13382298D01*
X9595782Y-13382298D02*
X9605305Y-13372774D01*
X9605305Y-13372774D02*
X9605305Y-13391822D01*
X7773100Y-13725100D02*
X7973100Y-13925100D01*
X7973100Y-13725100D02*
X7773100Y-13925100D01*
X8214829Y-13716584D02*
X8338639Y-13716584D01*
X8338639Y-13716584D02*
X8271972Y-13792774D01*
X8271972Y-13792774D02*
X8300543Y-13792774D01*
X8300543Y-13792774D02*
X8319591Y-13802298D01*
X8319591Y-13802298D02*
X8329115Y-13811822D01*
X8329115Y-13811822D02*
X8338639Y-13830869D01*
X8338639Y-13830869D02*
X8338639Y-13878488D01*
X8338639Y-13878488D02*
X8329115Y-13897536D01*
X8329115Y-13897536D02*
X8319591Y-13907060D01*
X8319591Y-13907060D02*
X8300543Y-13916584D01*
X8300543Y-13916584D02*
X8243401Y-13916584D01*
X8243401Y-13916584D02*
X8224353Y-13907060D01*
X8224353Y-13907060D02*
X8214829Y-13897536D01*
X8424353Y-13897536D02*
X8433877Y-13907060D01*
X8433877Y-13907060D02*
X8424353Y-13916584D01*
X8424353Y-13916584D02*
X8414829Y-13907060D01*
X8414829Y-13907060D02*
X8424353Y-13897536D01*
X8424353Y-13897536D02*
X8424353Y-13916584D01*
X8510067Y-13735631D02*
X8519591Y-13726108D01*
X8519591Y-13726108D02*
X8538639Y-13716584D01*
X8538639Y-13716584D02*
X8586258Y-13716584D01*
X8586258Y-13716584D02*
X8605305Y-13726108D01*
X8605305Y-13726108D02*
X8614829Y-13735631D01*
X8614829Y-13735631D02*
X8624353Y-13754679D01*
X8624353Y-13754679D02*
X8624353Y-13773727D01*
X8624353Y-13773727D02*
X8614829Y-13802298D01*
X8614829Y-13802298D02*
X8500544Y-13916584D01*
X8500544Y-13916584D02*
X8624353Y-13916584D01*
X8748163Y-13716584D02*
X8767210Y-13716584D01*
X8767210Y-13716584D02*
X8786258Y-13726108D01*
X8786258Y-13726108D02*
X8795782Y-13735631D01*
X8795782Y-13735631D02*
X8805305Y-13754679D01*
X8805305Y-13754679D02*
X8814829Y-13792774D01*
X8814829Y-13792774D02*
X8814829Y-13840393D01*
X8814829Y-13840393D02*
X8805305Y-13878488D01*
X8805305Y-13878488D02*
X8795782Y-13897536D01*
X8795782Y-13897536D02*
X8786258Y-13907060D01*
X8786258Y-13907060D02*
X8767210Y-13916584D01*
X8767210Y-13916584D02*
X8748163Y-13916584D01*
X8748163Y-13916584D02*
X8729115Y-13907060D01*
X8729115Y-13907060D02*
X8719591Y-13897536D01*
X8719591Y-13897536D02*
X8710067Y-13878488D01*
X8710067Y-13878488D02*
X8700544Y-13840393D01*
X8700544Y-13840393D02*
X8700544Y-13792774D01*
X8700544Y-13792774D02*
X8710067Y-13754679D01*
X8710067Y-13754679D02*
X8719591Y-13735631D01*
X8719591Y-13735631D02*
X8729115Y-13726108D01*
X8729115Y-13726108D02*
X8748163Y-13716584D01*
X8938639Y-13716584D02*
X8957686Y-13716584D01*
X8957686Y-13716584D02*
X8976734Y-13726108D01*
X8976734Y-13726108D02*
X8986258Y-13735631D01*
X8986258Y-13735631D02*
X8995782Y-13754679D01*
X8995782Y-13754679D02*
X9005305Y-13792774D01*
X9005305Y-13792774D02*
X9005305Y-13840393D01*
X9005305Y-13840393D02*
X8995782Y-13878488D01*
X8995782Y-13878488D02*
X8986258Y-13897536D01*
X8986258Y-13897536D02*
X8976734Y-13907060D01*
X8976734Y-13907060D02*
X8957686Y-13916584D01*
X8957686Y-13916584D02*
X8938639Y-13916584D01*
X8938639Y-13916584D02*
X8919591Y-13907060D01*
X8919591Y-13907060D02*
X8910067Y-13897536D01*
X8910067Y-13897536D02*
X8900544Y-13878488D01*
X8900544Y-13878488D02*
X8891020Y-13840393D01*
X8891020Y-13840393D02*
X8891020Y-13792774D01*
X8891020Y-13792774D02*
X8900544Y-13754679D01*
X8900544Y-13754679D02*
X8910067Y-13735631D01*
X8910067Y-13735631D02*
X8919591Y-13726108D01*
X8919591Y-13726108D02*
X8938639Y-13716584D01*
X9091020Y-13916584D02*
X9091020Y-13783250D01*
X9091020Y-13802298D02*
X9100544Y-13792774D01*
X9100544Y-13792774D02*
X9119591Y-13783250D01*
X9119591Y-13783250D02*
X9148163Y-13783250D01*
X9148163Y-13783250D02*
X9167210Y-13792774D01*
X9167210Y-13792774D02*
X9176734Y-13811822D01*
X9176734Y-13811822D02*
X9176734Y-13916584D01*
X9176734Y-13811822D02*
X9186258Y-13792774D01*
X9186258Y-13792774D02*
X9205305Y-13783250D01*
X9205305Y-13783250D02*
X9233877Y-13783250D01*
X9233877Y-13783250D02*
X9252925Y-13792774D01*
X9252925Y-13792774D02*
X9262448Y-13811822D01*
X9262448Y-13811822D02*
X9262448Y-13916584D01*
X9357686Y-13916584D02*
X9357686Y-13783250D01*
X9357686Y-13802298D02*
X9367210Y-13792774D01*
X9367210Y-13792774D02*
X9386258Y-13783250D01*
X9386258Y-13783250D02*
X9414829Y-13783250D01*
X9414829Y-13783250D02*
X9433877Y-13792774D01*
X9433877Y-13792774D02*
X9443401Y-13811822D01*
X9443401Y-13811822D02*
X9443401Y-13916584D01*
X9443401Y-13811822D02*
X9452925Y-13792774D01*
X9452925Y-13792774D02*
X9471972Y-13783250D01*
X9471972Y-13783250D02*
X9500544Y-13783250D01*
X9500544Y-13783250D02*
X9519591Y-13792774D01*
X9519591Y-13792774D02*
X9529115Y-13811822D01*
X9529115Y-13811822D02*
X9529115Y-13916584D01*
X9919591Y-13707060D02*
X9748163Y-13964203D01*
X10176734Y-13716584D02*
X10195782Y-13716584D01*
X10195782Y-13716584D02*
X10214829Y-13726108D01*
X10214829Y-13726108D02*
X10224353Y-13735631D01*
X10224353Y-13735631D02*
X10233877Y-13754679D01*
X10233877Y-13754679D02*
X10243401Y-13792774D01*
X10243401Y-13792774D02*
X10243401Y-13840393D01*
X10243401Y-13840393D02*
X10233877Y-13878488D01*
X10233877Y-13878488D02*
X10224353Y-13897536D01*
X10224353Y-13897536D02*
X10214829Y-13907060D01*
X10214829Y-13907060D02*
X10195782Y-13916584D01*
X10195782Y-13916584D02*
X10176734Y-13916584D01*
X10176734Y-13916584D02*
X10157687Y-13907060D01*
X10157687Y-13907060D02*
X10148163Y-13897536D01*
X10148163Y-13897536D02*
X10138639Y-13878488D01*
X10138639Y-13878488D02*
X10129115Y-13840393D01*
X10129115Y-13840393D02*
X10129115Y-13792774D01*
X10129115Y-13792774D02*
X10138639Y-13754679D01*
X10138639Y-13754679D02*
X10148163Y-13735631D01*
X10148163Y-13735631D02*
X10157687Y-13726108D01*
X10157687Y-13726108D02*
X10176734Y-13716584D01*
X10329115Y-13897536D02*
X10338639Y-13907060D01*
X10338639Y-13907060D02*
X10329115Y-13916584D01*
X10329115Y-13916584D02*
X10319591Y-13907060D01*
X10319591Y-13907060D02*
X10329115Y-13897536D01*
X10329115Y-13897536D02*
X10329115Y-13916584D01*
X10529115Y-13916584D02*
X10414829Y-13916584D01*
X10471972Y-13916584D02*
X10471972Y-13716584D01*
X10471972Y-13716584D02*
X10452925Y-13745155D01*
X10452925Y-13745155D02*
X10433877Y-13764203D01*
X10433877Y-13764203D02*
X10414829Y-13773727D01*
X10605306Y-13735631D02*
X10614829Y-13726108D01*
X10614829Y-13726108D02*
X10633877Y-13716584D01*
X10633877Y-13716584D02*
X10681496Y-13716584D01*
X10681496Y-13716584D02*
X10700544Y-13726108D01*
X10700544Y-13726108D02*
X10710068Y-13735631D01*
X10710068Y-13735631D02*
X10719591Y-13754679D01*
X10719591Y-13754679D02*
X10719591Y-13773727D01*
X10719591Y-13773727D02*
X10710068Y-13802298D01*
X10710068Y-13802298D02*
X10595782Y-13916584D01*
X10595782Y-13916584D02*
X10719591Y-13916584D01*
X10891020Y-13716584D02*
X10852925Y-13716584D01*
X10852925Y-13716584D02*
X10833877Y-13726108D01*
X10833877Y-13726108D02*
X10824353Y-13735631D01*
X10824353Y-13735631D02*
X10805306Y-13764203D01*
X10805306Y-13764203D02*
X10795782Y-13802298D01*
X10795782Y-13802298D02*
X10795782Y-13878488D01*
X10795782Y-13878488D02*
X10805306Y-13897536D01*
X10805306Y-13897536D02*
X10814829Y-13907060D01*
X10814829Y-13907060D02*
X10833877Y-13916584D01*
X10833877Y-13916584D02*
X10871972Y-13916584D01*
X10871972Y-13916584D02*
X10891020Y-13907060D01*
X10891020Y-13907060D02*
X10900544Y-13897536D01*
X10900544Y-13897536D02*
X10910068Y-13878488D01*
X10910068Y-13878488D02*
X10910068Y-13830869D01*
X10910068Y-13830869D02*
X10900544Y-13811822D01*
X10900544Y-13811822D02*
X10891020Y-13802298D01*
X10891020Y-13802298D02*
X10871972Y-13792774D01*
X10871972Y-13792774D02*
X10833877Y-13792774D01*
X10833877Y-13792774D02*
X10814829Y-13802298D01*
X10814829Y-13802298D02*
X10805306Y-13811822D01*
X10805306Y-13811822D02*
X10795782Y-13830869D01*
X11033877Y-13716584D02*
X11052925Y-13716584D01*
X11052925Y-13716584D02*
X11071972Y-13726108D01*
X11071972Y-13726108D02*
X11081496Y-13735631D01*
X11081496Y-13735631D02*
X11091020Y-13754679D01*
X11091020Y-13754679D02*
X11100544Y-13792774D01*
X11100544Y-13792774D02*
X11100544Y-13840393D01*
X11100544Y-13840393D02*
X11091020Y-13878488D01*
X11091020Y-13878488D02*
X11081496Y-13897536D01*
X11081496Y-13897536D02*
X11071972Y-13907060D01*
X11071972Y-13907060D02*
X11052925Y-13916584D01*
X11052925Y-13916584D02*
X11033877Y-13916584D01*
X11033877Y-13916584D02*
X11014829Y-13907060D01*
X11014829Y-13907060D02*
X11005306Y-13897536D01*
X11005306Y-13897536D02*
X10995782Y-13878488D01*
X10995782Y-13878488D02*
X10986258Y-13840393D01*
X10986258Y-13840393D02*
X10986258Y-13792774D01*
X10986258Y-13792774D02*
X10995782Y-13754679D01*
X10995782Y-13754679D02*
X11005306Y-13735631D01*
X11005306Y-13735631D02*
X11014829Y-13726108D01*
X11014829Y-13726108D02*
X11033877Y-13716584D01*
X11176734Y-13716584D02*
X11176734Y-13754679D01*
X11252925Y-13716584D02*
X11252925Y-13754679D01*
X11548163Y-13992774D02*
X11538639Y-13983250D01*
X11538639Y-13983250D02*
X11519591Y-13954679D01*
X11519591Y-13954679D02*
X11510068Y-13935631D01*
X11510068Y-13935631D02*
X11500544Y-13907060D01*
X11500544Y-13907060D02*
X11491020Y-13859441D01*
X11491020Y-13859441D02*
X11491020Y-13821346D01*
X11491020Y-13821346D02*
X11500544Y-13773727D01*
X11500544Y-13773727D02*
X11510068Y-13745155D01*
X11510068Y-13745155D02*
X11519591Y-13726108D01*
X11519591Y-13726108D02*
X11538639Y-13697536D01*
X11538639Y-13697536D02*
X11548163Y-13688012D01*
X11710068Y-13783250D02*
X11710068Y-13916584D01*
X11662448Y-13707060D02*
X11614829Y-13849917D01*
X11614829Y-13849917D02*
X11738639Y-13849917D01*
X11967210Y-13916584D02*
X11967210Y-13716584D01*
X12052925Y-13916584D02*
X12052925Y-13811822D01*
X12052925Y-13811822D02*
X12043401Y-13792774D01*
X12043401Y-13792774D02*
X12024353Y-13783250D01*
X12024353Y-13783250D02*
X11995782Y-13783250D01*
X11995782Y-13783250D02*
X11976734Y-13792774D01*
X11976734Y-13792774D02*
X11967210Y-13802298D01*
X12176734Y-13916584D02*
X12157687Y-13907060D01*
X12157687Y-13907060D02*
X12148163Y-13897536D01*
X12148163Y-13897536D02*
X12138639Y-13878488D01*
X12138639Y-13878488D02*
X12138639Y-13821346D01*
X12138639Y-13821346D02*
X12148163Y-13802298D01*
X12148163Y-13802298D02*
X12157687Y-13792774D01*
X12157687Y-13792774D02*
X12176734Y-13783250D01*
X12176734Y-13783250D02*
X12205306Y-13783250D01*
X12205306Y-13783250D02*
X12224353Y-13792774D01*
X12224353Y-13792774D02*
X12233877Y-13802298D01*
X12233877Y-13802298D02*
X12243401Y-13821346D01*
X12243401Y-13821346D02*
X12243401Y-13878488D01*
X12243401Y-13878488D02*
X12233877Y-13897536D01*
X12233877Y-13897536D02*
X12224353Y-13907060D01*
X12224353Y-13907060D02*
X12205306Y-13916584D01*
X12205306Y-13916584D02*
X12176734Y-13916584D01*
X12357687Y-13916584D02*
X12338639Y-13907060D01*
X12338639Y-13907060D02*
X12329115Y-13888012D01*
X12329115Y-13888012D02*
X12329115Y-13716584D01*
X12510068Y-13907060D02*
X12491020Y-13916584D01*
X12491020Y-13916584D02*
X12452925Y-13916584D01*
X12452925Y-13916584D02*
X12433877Y-13907060D01*
X12433877Y-13907060D02*
X12424353Y-13888012D01*
X12424353Y-13888012D02*
X12424353Y-13811822D01*
X12424353Y-13811822D02*
X12433877Y-13792774D01*
X12433877Y-13792774D02*
X12452925Y-13783250D01*
X12452925Y-13783250D02*
X12491020Y-13783250D01*
X12491020Y-13783250D02*
X12510068Y-13792774D01*
X12510068Y-13792774D02*
X12519591Y-13811822D01*
X12519591Y-13811822D02*
X12519591Y-13830869D01*
X12519591Y-13830869D02*
X12424353Y-13849917D01*
X12595782Y-13907060D02*
X12614830Y-13916584D01*
X12614830Y-13916584D02*
X12652925Y-13916584D01*
X12652925Y-13916584D02*
X12671972Y-13907060D01*
X12671972Y-13907060D02*
X12681496Y-13888012D01*
X12681496Y-13888012D02*
X12681496Y-13878488D01*
X12681496Y-13878488D02*
X12671972Y-13859441D01*
X12671972Y-13859441D02*
X12652925Y-13849917D01*
X12652925Y-13849917D02*
X12624353Y-13849917D01*
X12624353Y-13849917D02*
X12605306Y-13840393D01*
X12605306Y-13840393D02*
X12595782Y-13821346D01*
X12595782Y-13821346D02*
X12595782Y-13811822D01*
X12595782Y-13811822D02*
X12605306Y-13792774D01*
X12605306Y-13792774D02*
X12624353Y-13783250D01*
X12624353Y-13783250D02*
X12652925Y-13783250D01*
X12652925Y-13783250D02*
X12671972Y-13792774D01*
X12748163Y-13992774D02*
X12757687Y-13983250D01*
X12757687Y-13983250D02*
X12776734Y-13954679D01*
X12776734Y-13954679D02*
X12786258Y-13935631D01*
X12786258Y-13935631D02*
X12795782Y-13907060D01*
X12795782Y-13907060D02*
X12805306Y-13859441D01*
X12805306Y-13859441D02*
X12805306Y-13821346D01*
X12805306Y-13821346D02*
X12795782Y-13773727D01*
X12795782Y-13773727D02*
X12786258Y-13745155D01*
X12786258Y-13745155D02*
X12776734Y-13726108D01*
X12776734Y-13726108D02*
X12757687Y-13697536D01*
X12757687Y-13697536D02*
X12748163Y-13688012D01*
X13110068Y-13992774D02*
X13100544Y-13983250D01*
X13100544Y-13983250D02*
X13081496Y-13954679D01*
X13081496Y-13954679D02*
X13071972Y-13935631D01*
X13071972Y-13935631D02*
X13062449Y-13907060D01*
X13062449Y-13907060D02*
X13052925Y-13859441D01*
X13052925Y-13859441D02*
X13052925Y-13821346D01*
X13052925Y-13821346D02*
X13062449Y-13773727D01*
X13062449Y-13773727D02*
X13071972Y-13745155D01*
X13071972Y-13745155D02*
X13081496Y-13726108D01*
X13081496Y-13726108D02*
X13100544Y-13697536D01*
X13100544Y-13697536D02*
X13110068Y-13688012D01*
X13186258Y-13783250D02*
X13186258Y-13916584D01*
X13186258Y-13802298D02*
X13195782Y-13792774D01*
X13195782Y-13792774D02*
X13214830Y-13783250D01*
X13214830Y-13783250D02*
X13243401Y-13783250D01*
X13243401Y-13783250D02*
X13262449Y-13792774D01*
X13262449Y-13792774D02*
X13271972Y-13811822D01*
X13271972Y-13811822D02*
X13271972Y-13916584D01*
X13395782Y-13916584D02*
X13376734Y-13907060D01*
X13376734Y-13907060D02*
X13367211Y-13897536D01*
X13367211Y-13897536D02*
X13357687Y-13878488D01*
X13357687Y-13878488D02*
X13357687Y-13821346D01*
X13357687Y-13821346D02*
X13367211Y-13802298D01*
X13367211Y-13802298D02*
X13376734Y-13792774D01*
X13376734Y-13792774D02*
X13395782Y-13783250D01*
X13395782Y-13783250D02*
X13424353Y-13783250D01*
X13424353Y-13783250D02*
X13443401Y-13792774D01*
X13443401Y-13792774D02*
X13452925Y-13802298D01*
X13452925Y-13802298D02*
X13462449Y-13821346D01*
X13462449Y-13821346D02*
X13462449Y-13878488D01*
X13462449Y-13878488D02*
X13452925Y-13897536D01*
X13452925Y-13897536D02*
X13443401Y-13907060D01*
X13443401Y-13907060D02*
X13424353Y-13916584D01*
X13424353Y-13916584D02*
X13395782Y-13916584D01*
X13519592Y-13783250D02*
X13595782Y-13783250D01*
X13548163Y-13716584D02*
X13548163Y-13888012D01*
X13548163Y-13888012D02*
X13557687Y-13907060D01*
X13557687Y-13907060D02*
X13576734Y-13916584D01*
X13576734Y-13916584D02*
X13595782Y-13916584D01*
X13814830Y-13783250D02*
X13814830Y-13983250D01*
X13814830Y-13792774D02*
X13833877Y-13783250D01*
X13833877Y-13783250D02*
X13871973Y-13783250D01*
X13871973Y-13783250D02*
X13891020Y-13792774D01*
X13891020Y-13792774D02*
X13900544Y-13802298D01*
X13900544Y-13802298D02*
X13910068Y-13821346D01*
X13910068Y-13821346D02*
X13910068Y-13878488D01*
X13910068Y-13878488D02*
X13900544Y-13897536D01*
X13900544Y-13897536D02*
X13891020Y-13907060D01*
X13891020Y-13907060D02*
X13871973Y-13916584D01*
X13871973Y-13916584D02*
X13833877Y-13916584D01*
X13833877Y-13916584D02*
X13814830Y-13907060D01*
X14024353Y-13916584D02*
X14005306Y-13907060D01*
X14005306Y-13907060D02*
X13995782Y-13888012D01*
X13995782Y-13888012D02*
X13995782Y-13716584D01*
X14186258Y-13916584D02*
X14186258Y-13811822D01*
X14186258Y-13811822D02*
X14176734Y-13792774D01*
X14176734Y-13792774D02*
X14157687Y-13783250D01*
X14157687Y-13783250D02*
X14119592Y-13783250D01*
X14119592Y-13783250D02*
X14100544Y-13792774D01*
X14186258Y-13907060D02*
X14167211Y-13916584D01*
X14167211Y-13916584D02*
X14119592Y-13916584D01*
X14119592Y-13916584D02*
X14100544Y-13907060D01*
X14100544Y-13907060D02*
X14091020Y-13888012D01*
X14091020Y-13888012D02*
X14091020Y-13868965D01*
X14091020Y-13868965D02*
X14100544Y-13849917D01*
X14100544Y-13849917D02*
X14119592Y-13840393D01*
X14119592Y-13840393D02*
X14167211Y-13840393D01*
X14167211Y-13840393D02*
X14186258Y-13830869D01*
X14252925Y-13783250D02*
X14329115Y-13783250D01*
X14281496Y-13716584D02*
X14281496Y-13888012D01*
X14281496Y-13888012D02*
X14291020Y-13907060D01*
X14291020Y-13907060D02*
X14310068Y-13916584D01*
X14310068Y-13916584D02*
X14329115Y-13916584D01*
X14471973Y-13907060D02*
X14452925Y-13916584D01*
X14452925Y-13916584D02*
X14414830Y-13916584D01*
X14414830Y-13916584D02*
X14395782Y-13907060D01*
X14395782Y-13907060D02*
X14386258Y-13888012D01*
X14386258Y-13888012D02*
X14386258Y-13811822D01*
X14386258Y-13811822D02*
X14395782Y-13792774D01*
X14395782Y-13792774D02*
X14414830Y-13783250D01*
X14414830Y-13783250D02*
X14452925Y-13783250D01*
X14452925Y-13783250D02*
X14471973Y-13792774D01*
X14471973Y-13792774D02*
X14481496Y-13811822D01*
X14481496Y-13811822D02*
X14481496Y-13830869D01*
X14481496Y-13830869D02*
X14386258Y-13849917D01*
X14652925Y-13916584D02*
X14652925Y-13716584D01*
X14652925Y-13907060D02*
X14633877Y-13916584D01*
X14633877Y-13916584D02*
X14595782Y-13916584D01*
X14595782Y-13916584D02*
X14576734Y-13907060D01*
X14576734Y-13907060D02*
X14567211Y-13897536D01*
X14567211Y-13897536D02*
X14557687Y-13878488D01*
X14557687Y-13878488D02*
X14557687Y-13821346D01*
X14557687Y-13821346D02*
X14567211Y-13802298D01*
X14567211Y-13802298D02*
X14576734Y-13792774D01*
X14576734Y-13792774D02*
X14595782Y-13783250D01*
X14595782Y-13783250D02*
X14633877Y-13783250D01*
X14633877Y-13783250D02*
X14652925Y-13792774D01*
X14729115Y-13992774D02*
X14738639Y-13983250D01*
X14738639Y-13983250D02*
X14757687Y-13954679D01*
X14757687Y-13954679D02*
X14767211Y-13935631D01*
X14767211Y-13935631D02*
X14776734Y-13907060D01*
X14776734Y-13907060D02*
X14786258Y-13859441D01*
X14786258Y-13859441D02*
X14786258Y-13821346D01*
X14786258Y-13821346D02*
X14776734Y-13773727D01*
X14776734Y-13773727D02*
X14767211Y-13745155D01*
X14767211Y-13745155D02*
X14757687Y-13726108D01*
X14757687Y-13726108D02*
X14738639Y-13697536D01*
X14738639Y-13697536D02*
X14729115Y-13688012D01*
M02*
