G04 #@! TF.GenerationSoftware,KiCad,Pcbnew,8.0.8*
G04 #@! TF.CreationDate,2025-03-09T17:06:21-04:00*
G04 #@! TF.ProjectId,PreAmpEQ,50726541-6d70-4455-912e-6b696361645f,1.1*
G04 #@! TF.SameCoordinates,Original*
G04 #@! TF.FileFunction,Paste,Top*
G04 #@! TF.FilePolarity,Positive*
%FSLAX46Y46*%
G04 Gerber Fmt 4.6, Leading zero omitted, Abs format (unit mm)*
G04 Created by KiCad (PCBNEW 8.0.8) date 2025-03-09 17:06:21*
%MOMM*%
%LPD*%
G01*
G04 APERTURE LIST*
G04 Aperture macros list*
%AMRoundRect*
0 Rectangle with rounded corners*
0 $1 Rounding radius*
0 $2 $3 $4 $5 $6 $7 $8 $9 X,Y pos of 4 corners*
0 Add a 4 corners polygon primitive as box body*
4,1,4,$2,$3,$4,$5,$6,$7,$8,$9,$2,$3,0*
0 Add four circle primitives for the rounded corners*
1,1,$1+$1,$2,$3*
1,1,$1+$1,$4,$5*
1,1,$1+$1,$6,$7*
1,1,$1+$1,$8,$9*
0 Add four rect primitives between the rounded corners*
20,1,$1+$1,$2,$3,$4,$5,0*
20,1,$1+$1,$4,$5,$6,$7,0*
20,1,$1+$1,$6,$7,$8,$9,0*
20,1,$1+$1,$8,$9,$2,$3,0*%
G04 Aperture macros list end*
%ADD10R,0.939800X3.505200*%
%ADD11R,10.033000X11.125200*%
%ADD12R,0.939800X2.489200*%
%ADD13R,6.781800X6.934200*%
%ADD14R,1.498600X1.397000*%
%ADD15RoundRect,0.250000X0.450000X-0.350000X0.450000X0.350000X-0.450000X0.350000X-0.450000X-0.350000X0*%
%ADD16RoundRect,0.250000X0.350000X0.450000X-0.350000X0.450000X-0.350000X-0.450000X0.350000X-0.450000X0*%
%ADD17RoundRect,0.250000X-0.450000X0.350000X-0.450000X-0.350000X0.450000X-0.350000X0.450000X0.350000X0*%
%ADD18RoundRect,0.250000X0.475000X-0.337500X0.475000X0.337500X-0.475000X0.337500X-0.475000X-0.337500X0*%
%ADD19RoundRect,0.250000X-0.350000X-0.450000X0.350000X-0.450000X0.350000X0.450000X-0.350000X0.450000X0*%
%ADD20RoundRect,0.250000X-0.475000X0.337500X-0.475000X-0.337500X0.475000X-0.337500X0.475000X0.337500X0*%
%ADD21R,0.558800X1.460500*%
%ADD22RoundRect,0.237500X-0.237500X0.250000X-0.237500X-0.250000X0.237500X-0.250000X0.237500X0.250000X0*%
%ADD23RoundRect,0.250000X-0.337500X-0.475000X0.337500X-0.475000X0.337500X0.475000X-0.337500X0.475000X0*%
%ADD24R,6.705600X2.209800*%
%ADD25RoundRect,0.250000X0.337500X0.475000X-0.337500X0.475000X-0.337500X-0.475000X0.337500X-0.475000X0*%
%ADD26R,2.489200X1.498600*%
G04 APERTURE END LIST*
D10*
X142494000Y-63119000D03*
D11*
X145034000Y-53848000D03*
D10*
X147574000Y-63119000D03*
D12*
X168905999Y-69913500D03*
D13*
X171196000Y-63500000D03*
D12*
X173486001Y-69913500D03*
D14*
X96769200Y-48904000D03*
X92298800Y-48904000D03*
D15*
X97790000Y-101838000D03*
X97790000Y-99838000D03*
X97790000Y-97790000D03*
X97790000Y-95790000D03*
D16*
X175260000Y-91694000D03*
X173260000Y-91694000D03*
D17*
X177546000Y-83852000D03*
X177546000Y-85852000D03*
D15*
X177546000Y-99822000D03*
X177546000Y-97822000D03*
D16*
X173228000Y-95504000D03*
X171228000Y-95504000D03*
D18*
X200660000Y-88943000D03*
X200660000Y-86868000D03*
X200660000Y-97071000D03*
X200660000Y-94996000D03*
D19*
X175546000Y-95504000D03*
X177546000Y-95504000D03*
X131096000Y-114046000D03*
X133096000Y-114046000D03*
D17*
X137534000Y-72404000D03*
X137534000Y-74404000D03*
D18*
X191325000Y-93277000D03*
X191325000Y-91202000D03*
D15*
X177546000Y-90630000D03*
X177546000Y-88630000D03*
D20*
X182816000Y-73363000D03*
X182816000Y-75438000D03*
D19*
X139192000Y-101092000D03*
X141192000Y-101092000D03*
D20*
X120396000Y-80729000D03*
X120396000Y-82804000D03*
D21*
X160909000Y-95319850D03*
X159639000Y-95319850D03*
X158369000Y-95319850D03*
X157099000Y-95319850D03*
X157099000Y-100768150D03*
X158369000Y-100768150D03*
X159639000Y-100768150D03*
X160909000Y-100768150D03*
D19*
X133620000Y-78994000D03*
X135620000Y-78994000D03*
D17*
X177546000Y-80042000D03*
X177546000Y-82042000D03*
X203380000Y-86952000D03*
X203380000Y-88952000D03*
D20*
X178816000Y-73363000D03*
X178816000Y-75438000D03*
D22*
X106534000Y-59404000D03*
X106534000Y-61229000D03*
D20*
X110034000Y-58866500D03*
X110034000Y-60941500D03*
D23*
X97747000Y-93726000D03*
X99822000Y-93726000D03*
X139149000Y-83058000D03*
X141224000Y-83058000D03*
D20*
X161534000Y-70866500D03*
X161534000Y-72941500D03*
D19*
X150638000Y-104902000D03*
X152638000Y-104902000D03*
D16*
X173228000Y-102870000D03*
X171228000Y-102870000D03*
D18*
X163322000Y-118153000D03*
X163322000Y-116078000D03*
D20*
X134034000Y-57866500D03*
X134034000Y-59941500D03*
D17*
X186316000Y-73400500D03*
X186316000Y-75400500D03*
D16*
X168402000Y-105410000D03*
X166402000Y-105410000D03*
D23*
X139133000Y-90424000D03*
X141208000Y-90424000D03*
D19*
X150908000Y-90932000D03*
X152908000Y-90932000D03*
D18*
X116078000Y-99589500D03*
X116078000Y-97514500D03*
D24*
X103034000Y-48657500D03*
X103034000Y-56150500D03*
D21*
X112649000Y-95573850D03*
X111379000Y-95573850D03*
X110109000Y-95573850D03*
X108839000Y-95573850D03*
X108839000Y-101022150D03*
X110109000Y-101022150D03*
X111379000Y-101022150D03*
X112649000Y-101022150D03*
D19*
X104156000Y-103886000D03*
X106156000Y-103886000D03*
D17*
X115570000Y-80804000D03*
X115570000Y-82804000D03*
D19*
X146066000Y-101092000D03*
X148066000Y-101092000D03*
D23*
X194842500Y-86952000D03*
X196917500Y-86952000D03*
D19*
X139224000Y-86614000D03*
X141224000Y-86614000D03*
D23*
X171407000Y-89154000D03*
X173482000Y-89154000D03*
D18*
X160020000Y-118407000D03*
X160020000Y-116332000D03*
D23*
X123401000Y-95250000D03*
X125476000Y-95250000D03*
D25*
X196880000Y-96952000D03*
X194805000Y-96952000D03*
D19*
X155480000Y-116840000D03*
X157480000Y-116840000D03*
X133636000Y-86614000D03*
X135636000Y-86614000D03*
X133366000Y-101092000D03*
X135366000Y-101092000D03*
X150654000Y-116840000D03*
X152654000Y-116840000D03*
D23*
X111209000Y-112522000D03*
X113284000Y-112522000D03*
X123401000Y-101092000D03*
X125476000Y-101092000D03*
D15*
X203380000Y-96952000D03*
X203380000Y-94952000D03*
D20*
X157534000Y-70866500D03*
X157534000Y-72941500D03*
D17*
X115570000Y-86646000D03*
X115570000Y-88646000D03*
D19*
X168688000Y-113538000D03*
X170688000Y-113538000D03*
D18*
X173228000Y-112311000D03*
X173228000Y-110236000D03*
D19*
X144558000Y-78994000D03*
X146558000Y-78994000D03*
D23*
X137392500Y-105410000D03*
X139467500Y-105410000D03*
D15*
X177546000Y-103600000D03*
X177546000Y-101600000D03*
D23*
X171407000Y-99060000D03*
X173482000Y-99060000D03*
D25*
X107463500Y-112522000D03*
X105388500Y-112522000D03*
D18*
X153670000Y-99081500D03*
X153670000Y-97006500D03*
D19*
X103902000Y-93726000D03*
X105902000Y-93726000D03*
X166402000Y-109728000D03*
X168402000Y-109728000D03*
D23*
X97768500Y-103886000D03*
X99843500Y-103886000D03*
D20*
X120396000Y-86571000D03*
X120396000Y-88646000D03*
X128534000Y-57866500D03*
X128534000Y-59941500D03*
D19*
X145574000Y-86614000D03*
X147574000Y-86614000D03*
D20*
X153034000Y-70866500D03*
X153034000Y-72941500D03*
D19*
X133620000Y-95250000D03*
X135620000Y-95250000D03*
X146050000Y-95250000D03*
X148050000Y-95250000D03*
D18*
X184912000Y-118661000D03*
X184912000Y-116586000D03*
D26*
X115282800Y-57904000D03*
X115282800Y-60904000D03*
X121785200Y-60904000D03*
X121785200Y-57904000D03*
D23*
X152611000Y-113538000D03*
X154686000Y-113538000D03*
D21*
X187325000Y-89477850D03*
X186055000Y-89477850D03*
X184785000Y-89477850D03*
X183515000Y-89477850D03*
X183515000Y-94926150D03*
X184785000Y-94926150D03*
X186055000Y-94926150D03*
X187325000Y-94926150D03*
D19*
X138954000Y-95250000D03*
X140954000Y-95250000D03*
M02*
