M48
; DRILL file {KiCad 8.0.8} date 2025-03-09T17:06:26-0400
; FORMAT={-:-/ absolute / metric / decimal}
; #@! TF.CreationDate,2025-03-09T17:06:26-04:00
; #@! TF.GenerationSoftware,Kicad,Pcbnew,8.0.8
; #@! TF.FileFunction,Plated,1,2,PTH
FMAT,2
METRIC
; #@! TA.AperFunction,Plated,PTH,ViaDrill
T1C0.300
; #@! TA.AperFunction,Plated,PTH,ViaDrill
T2C0.750
; #@! TA.AperFunction,Plated,PTH,ViaDrill
T3C1.000
; #@! TA.AperFunction,Plated,PTH,ComponentDrill
T4C1.000
; #@! TA.AperFunction,Plated,PTH,ComponentDrill
T5C1.200
; #@! TA.AperFunction,Plated,PTH,ComponentDrill
T6C1.300
; #@! TA.AperFunction,Plated,PTH,ComponentDrill
T7C1.850
%
G90
G05
T1
X91.44Y-98.802
X108.458Y-97.028
X109.474Y-99.568
X110.236Y-89.662
X110.363Y-97.155
X111.252Y-93.726
X111.252Y-106.426
X113.284Y-104.394
X114.3Y-96.266
X115.57Y-90.678
X116.078Y-96.05
X118.11Y-93.472
X118.11Y-99.568
X118.11Y-103.378
X120.396Y-90.424
X124.594Y-60.904
X128.524Y-61.722
X131.064Y-109.728
X131.572Y-105.918
X132.08Y-89.408
X134.112Y-61.976
X134.62Y-114.046
X135.382Y-97.536
X135.382Y-103.886
X135.89Y-89.916
X137.668Y-93.218
X137.922Y-114.046
X138.176Y-109.728
X140.208Y-103.378
X141.732Y-112.776
X142.24Y-114.046
X143.002Y-124.46
X144.018Y-88.392
X144.018Y-92.456
X145.288Y-99.314
X145.542Y-97.536
X146.812Y-102.87
X146.812Y-118.11
X148.59Y-91.186
X148.59Y-93.98
X149.098Y-97.536
X150.368Y-99.568
X150.622Y-114.046
X151.638Y-89.154
X151.638Y-93.98
X151.638Y-106.934
X152.908Y-74.93
X153.924Y-110.744
X154.432Y-119.126
X155.448Y-102.87
X155.702Y-95.25
X155.956Y-100.584
X156.464Y-105.918
X156.972Y-93.726
X157.226Y-97.536
X157.48Y-74.676
X157.48Y-119.126
X157.734Y-124.206
X159.004Y-105.918
X159.639Y-102.362
X159.962Y-99.081
X160.909Y-96.901
X161.29Y-74.676
X164.338Y-89.408
X164.338Y-99.06
X164.592Y-107.442
X164.846Y-109.728
X165.1Y-105.41
X167.386Y-85.852
X169.164Y-116.078
X169.418Y-94.742
X171.958Y-91.948
X173.736Y-122.682
X180.848Y-115.316
X182.88Y-77.216
X183.999Y-91.202
X187.198Y-119.38
X191.262Y-94.996
X191.262Y-98.806
X195.326Y-91.186
X203.38Y-92.057
T2
X145.034Y-46.482
T3
X171.034Y-53.432
T5
X103.712Y-122.682
X103.712Y-127.682
X108.712Y-122.682
X108.712Y-127.682
X113.712Y-122.682
X113.712Y-127.682
X130.636Y-122.762
X130.636Y-127.762
X135.636Y-122.762
X135.636Y-127.762
X140.636Y-122.762
X140.636Y-127.762
X155.02Y-123.016
X155.02Y-128.016
X160.02Y-123.016
X160.02Y-128.016
X165.02Y-123.016
X165.02Y-128.016
X180.246Y-123.016
X180.246Y-128.016
X185.246Y-123.016
X185.246Y-128.016
X190.246Y-123.016
X190.246Y-128.016
T6
X84.336Y-93.802
X84.336Y-98.802
X84.336Y-103.802
X128.534Y-44.704
X133.534Y-44.704
X157.56Y-44.704
X162.56Y-44.704
X180.674Y-44.904
X185.674Y-44.904
X215.38Y-87.004
X215.38Y-92.004
X215.38Y-97.004
T7
X95.758Y-125.984
X97.59Y-85.726
X97.843Y-112.386
X100.034Y-66.904
X113.534Y-51.404
X128.524Y-104.902
X128.778Y-90.424
X132.534Y-52.324
X145.034Y-72.904
X156.534Y-57.904
X183.568Y-100.358
X183.822Y-83.086
X184.848Y-62.992
X203.38Y-80.952
X203.38Y-102.952
T4
X85.784Y-56.304G85X85.784Y-58.504
G05
X90.284Y-62.204G85X88.084Y-62.204
G05
X92.084Y-56.104G85X92.084Y-58.704
G05
M30
