%TF.GenerationSoftware,KiCad,Pcbnew,8.0.8*%
%TF.CreationDate,2025-02-17T02:29:15-05:00*%
%TF.ProjectId,PreAmpEQ,50726541-6d70-4455-912e-6b696361645f,1.0*%
%TF.SameCoordinates,Original*%
%TF.FileFunction,Drillmap*%
%TF.FilePolarity,Positive*%
%FSLAX45Y45*%
G04 Gerber Fmt 4.5, Leading zero omitted, Abs format (unit mm)*
G04 Created by KiCad (PCBNEW 8.0.8) date 2025-02-17 02:29:15*
%MOMM*%
%LPD*%
G01*
G04 APERTURE LIST*
%ADD10C,0.050000*%
%ADD11C,0.200000*%
G04 APERTURE END LIST*
D10*
X7975600Y-3962400D02*
X21971000Y-3962400D01*
X21971000Y-13182600D01*
X7975600Y-13182600D01*
X7975600Y-3962400D01*
D11*
X8233877Y-13496584D02*
X8233877Y-13296584D01*
X8233877Y-13296584D02*
X8281496Y-13296584D01*
X8281496Y-13296584D02*
X8310067Y-13306108D01*
X8310067Y-13306108D02*
X8329115Y-13325155D01*
X8329115Y-13325155D02*
X8338639Y-13344203D01*
X8338639Y-13344203D02*
X8348162Y-13382298D01*
X8348162Y-13382298D02*
X8348162Y-13410869D01*
X8348162Y-13410869D02*
X8338639Y-13448965D01*
X8338639Y-13448965D02*
X8329115Y-13468012D01*
X8329115Y-13468012D02*
X8310067Y-13487060D01*
X8310067Y-13487060D02*
X8281496Y-13496584D01*
X8281496Y-13496584D02*
X8233877Y-13496584D01*
X8433877Y-13496584D02*
X8433877Y-13363250D01*
X8433877Y-13401346D02*
X8443401Y-13382298D01*
X8443401Y-13382298D02*
X8452924Y-13372774D01*
X8452924Y-13372774D02*
X8471972Y-13363250D01*
X8471972Y-13363250D02*
X8491020Y-13363250D01*
X8557686Y-13496584D02*
X8557686Y-13363250D01*
X8557686Y-13296584D02*
X8548163Y-13306108D01*
X8548163Y-13306108D02*
X8557686Y-13315631D01*
X8557686Y-13315631D02*
X8567210Y-13306108D01*
X8567210Y-13306108D02*
X8557686Y-13296584D01*
X8557686Y-13296584D02*
X8557686Y-13315631D01*
X8681496Y-13496584D02*
X8662448Y-13487060D01*
X8662448Y-13487060D02*
X8652924Y-13468012D01*
X8652924Y-13468012D02*
X8652924Y-13296584D01*
X8786258Y-13496584D02*
X8767210Y-13487060D01*
X8767210Y-13487060D02*
X8757686Y-13468012D01*
X8757686Y-13468012D02*
X8757686Y-13296584D01*
X9014829Y-13496584D02*
X9014829Y-13296584D01*
X9014829Y-13296584D02*
X9081496Y-13439441D01*
X9081496Y-13439441D02*
X9148163Y-13296584D01*
X9148163Y-13296584D02*
X9148163Y-13496584D01*
X9329115Y-13496584D02*
X9329115Y-13391822D01*
X9329115Y-13391822D02*
X9319591Y-13372774D01*
X9319591Y-13372774D02*
X9300544Y-13363250D01*
X9300544Y-13363250D02*
X9262448Y-13363250D01*
X9262448Y-13363250D02*
X9243401Y-13372774D01*
X9329115Y-13487060D02*
X9310067Y-13496584D01*
X9310067Y-13496584D02*
X9262448Y-13496584D01*
X9262448Y-13496584D02*
X9243401Y-13487060D01*
X9243401Y-13487060D02*
X9233877Y-13468012D01*
X9233877Y-13468012D02*
X9233877Y-13448965D01*
X9233877Y-13448965D02*
X9243401Y-13429917D01*
X9243401Y-13429917D02*
X9262448Y-13420393D01*
X9262448Y-13420393D02*
X9310067Y-13420393D01*
X9310067Y-13420393D02*
X9329115Y-13410869D01*
X9424353Y-13363250D02*
X9424353Y-13563250D01*
X9424353Y-13372774D02*
X9443401Y-13363250D01*
X9443401Y-13363250D02*
X9481496Y-13363250D01*
X9481496Y-13363250D02*
X9500544Y-13372774D01*
X9500544Y-13372774D02*
X9510067Y-13382298D01*
X9510067Y-13382298D02*
X9519591Y-13401346D01*
X9519591Y-13401346D02*
X9519591Y-13458488D01*
X9519591Y-13458488D02*
X9510067Y-13477536D01*
X9510067Y-13477536D02*
X9500544Y-13487060D01*
X9500544Y-13487060D02*
X9481496Y-13496584D01*
X9481496Y-13496584D02*
X9443401Y-13496584D01*
X9443401Y-13496584D02*
X9424353Y-13487060D01*
X9605305Y-13477536D02*
X9614829Y-13487060D01*
X9614829Y-13487060D02*
X9605305Y-13496584D01*
X9605305Y-13496584D02*
X9595782Y-13487060D01*
X9595782Y-13487060D02*
X9605305Y-13477536D01*
X9605305Y-13477536D02*
X9605305Y-13496584D01*
X9605305Y-13372774D02*
X9614829Y-13382298D01*
X9614829Y-13382298D02*
X9605305Y-13391822D01*
X9605305Y-13391822D02*
X9595782Y-13382298D01*
X9595782Y-13382298D02*
X9605305Y-13372774D01*
X9605305Y-13372774D02*
X9605305Y-13391822D01*
M02*
