G04 #@! TF.GenerationSoftware,KiCad,Pcbnew,8.0.8*
G04 #@! TF.CreationDate,2025-02-17T02:27:16-05:00*
G04 #@! TF.ProjectId,PreAmpEQ,50726541-6d70-4455-912e-6b696361645f,1.0*
G04 #@! TF.SameCoordinates,Original*
G04 #@! TF.FileFunction,Soldermask,Top*
G04 #@! TF.FilePolarity,Negative*
%FSLAX46Y46*%
G04 Gerber Fmt 4.6, Leading zero omitted, Abs format (unit mm)*
G04 Created by KiCad (PCBNEW 8.0.8) date 2025-02-17 02:27:16*
%MOMM*%
%LPD*%
G01*
G04 APERTURE LIST*
G04 Aperture macros list*
%AMRoundRect*
0 Rectangle with rounded corners*
0 $1 Rounding radius*
0 $2 $3 $4 $5 $6 $7 $8 $9 X,Y pos of 4 corners*
0 Add a 4 corners polygon primitive as box body*
4,1,4,$2,$3,$4,$5,$6,$7,$8,$9,$2,$3,0*
0 Add four circle primitives for the rounded corners*
1,1,$1+$1,$2,$3*
1,1,$1+$1,$4,$5*
1,1,$1+$1,$6,$7*
1,1,$1+$1,$8,$9*
0 Add four rect primitives between the rounded corners*
20,1,$1+$1,$2,$3,$4,$5,0*
20,1,$1+$1,$4,$5,$6,$7,0*
20,1,$1+$1,$6,$7,$8,$9,0*
20,1,$1+$1,$8,$9,$2,$3,0*%
G04 Aperture macros list end*
%ADD10RoundRect,0.250000X-0.450000X0.350000X-0.450000X-0.350000X0.450000X-0.350000X0.450000X0.350000X0*%
%ADD11RoundRect,0.250000X-0.350000X-0.450000X0.350000X-0.450000X0.350000X0.450000X-0.350000X0.450000X0*%
%ADD12C,3.400000*%
%ADD13C,2.154000*%
%ADD14RoundRect,0.250000X0.475000X-0.337500X0.475000X0.337500X-0.475000X0.337500X-0.475000X-0.337500X0*%
%ADD15RoundRect,0.250000X0.450000X-0.350000X0.450000X0.350000X-0.450000X0.350000X-0.450000X-0.350000X0*%
%ADD16RoundRect,0.250000X-0.475000X0.337500X-0.475000X-0.337500X0.475000X-0.337500X0.475000X0.337500X0*%
%ADD17R,0.558800X1.460500*%
%ADD18RoundRect,0.237500X-0.237500X0.250000X-0.237500X-0.250000X0.237500X-0.250000X0.237500X0.250000X0*%
%ADD19C,2.004000*%
%ADD20RoundRect,0.250000X-0.337500X-0.475000X0.337500X-0.475000X0.337500X0.475000X-0.337500X0.475000X0*%
%ADD21RoundRect,0.250000X0.350000X0.450000X-0.350000X0.450000X-0.350000X-0.450000X0.350000X-0.450000X0*%
%ADD22O,2.404000X4.604000*%
%ADD23O,2.204000X4.204000*%
%ADD24O,4.204000X2.204000*%
%ADD25RoundRect,0.102000X-0.975000X0.975000X-0.975000X-0.975000X0.975000X-0.975000X0.975000X0.975000X0*%
%ADD26R,6.705600X2.209800*%
%ADD27RoundRect,0.250000X0.337500X0.475000X-0.337500X0.475000X-0.337500X-0.475000X0.337500X-0.475000X0*%
%ADD28R,0.939800X2.489200*%
%ADD29R,6.781800X6.934200*%
%ADD30R,0.939800X3.505200*%
%ADD31R,10.033000X11.125200*%
%ADD32R,1.498600X1.397000*%
%ADD33RoundRect,0.102000X0.975000X-0.975000X0.975000X0.975000X-0.975000X0.975000X-0.975000X-0.975000X0*%
%ADD34R,2.489200X1.498600*%
G04 APERTURE END LIST*
D10*
X177546000Y-93456000D03*
X177546000Y-95456000D03*
D11*
X131096000Y-114046000D03*
X133096000Y-114046000D03*
D12*
X100034000Y-66904000D03*
D13*
X153034000Y-43904000D03*
X158034000Y-43904000D03*
D10*
X137534000Y-72404000D03*
X137534000Y-74404000D03*
D14*
X191325000Y-93277000D03*
X191325000Y-91202000D03*
D12*
X97589500Y-85726000D03*
D15*
X177546000Y-90630000D03*
X177546000Y-88630000D03*
D12*
X183822000Y-83086000D03*
D16*
X182816000Y-73363000D03*
X182816000Y-75438000D03*
D11*
X139192000Y-101092000D03*
X141192000Y-101092000D03*
D16*
X120396000Y-80729000D03*
X120396000Y-82804000D03*
D17*
X160909000Y-95319850D03*
X159639000Y-95319850D03*
X158369000Y-95319850D03*
X157099000Y-95319850D03*
X157099000Y-100768150D03*
X158369000Y-100768150D03*
X159639000Y-100768150D03*
X160909000Y-100768150D03*
D11*
X133620000Y-78994000D03*
X135620000Y-78994000D03*
D12*
X203380000Y-80952000D03*
X184848000Y-62992000D03*
D10*
X177546000Y-83582000D03*
X177546000Y-85582000D03*
X203380000Y-86952000D03*
X203380000Y-88952000D03*
D16*
X178816000Y-73363000D03*
X178816000Y-75438000D03*
D18*
X106534000Y-59404000D03*
X106534000Y-61229000D03*
D19*
X155020000Y-128016000D03*
X160020000Y-128016000D03*
X165020000Y-128016000D03*
X155020000Y-123016000D03*
X160020000Y-123016000D03*
X165020000Y-123016000D03*
D16*
X110034000Y-58866500D03*
X110034000Y-60941500D03*
D20*
X97514500Y-93726000D03*
X99589500Y-93726000D03*
X139149000Y-83058000D03*
X141224000Y-83058000D03*
D16*
X161534000Y-70866500D03*
X161534000Y-72941500D03*
D11*
X150638000Y-104902000D03*
X152638000Y-104902000D03*
D21*
X173228000Y-102870000D03*
X171228000Y-102870000D03*
D22*
X92084000Y-57404000D03*
D23*
X85784000Y-57404000D03*
D24*
X89184000Y-62204000D03*
D14*
X163322000Y-118153000D03*
X163322000Y-116078000D03*
D16*
X134034000Y-57866500D03*
X134034000Y-59941500D03*
D10*
X186316000Y-73400500D03*
X186316000Y-75400500D03*
D12*
X128778000Y-90424000D03*
D21*
X168402000Y-105410000D03*
X166402000Y-105410000D03*
D20*
X139133000Y-90424000D03*
X141208000Y-90424000D03*
D11*
X150908000Y-90932000D03*
X152908000Y-90932000D03*
D25*
X215380000Y-87004500D03*
D13*
X215380000Y-92004500D03*
X215380000Y-97004500D03*
D14*
X116078000Y-99589500D03*
X116078000Y-97514500D03*
D26*
X103034000Y-48657500D03*
X103034000Y-56150500D03*
D12*
X145034000Y-72904000D03*
D17*
X112649000Y-95573850D03*
X111379000Y-95573850D03*
X110109000Y-95573850D03*
X108839000Y-95573850D03*
X108839000Y-101022150D03*
X110109000Y-101022150D03*
X111379000Y-101022150D03*
X112649000Y-101022150D03*
D12*
X203380000Y-102952000D03*
X183568000Y-100358000D03*
D11*
X104156000Y-103886000D03*
X106156000Y-103886000D03*
D12*
X156534000Y-57904000D03*
D10*
X115570000Y-80804000D03*
X115570000Y-82804000D03*
D11*
X146066000Y-101092000D03*
X148066000Y-101092000D03*
D20*
X194842500Y-86952000D03*
X196917500Y-86952000D03*
D11*
X139224000Y-86614000D03*
X141224000Y-86614000D03*
D20*
X171661000Y-92202000D03*
X173736000Y-92202000D03*
D14*
X160020000Y-118407000D03*
X160020000Y-116332000D03*
D20*
X123401000Y-95250000D03*
X125476000Y-95250000D03*
D27*
X196880000Y-96952000D03*
X194805000Y-96952000D03*
D11*
X155480000Y-116840000D03*
X157480000Y-116840000D03*
X133636000Y-86614000D03*
X135636000Y-86614000D03*
D28*
X142743999Y-63817500D03*
D29*
X145034000Y-57404000D03*
D28*
X147324001Y-63817500D03*
D13*
X178534000Y-44904000D03*
X183534000Y-44904000D03*
D11*
X133366000Y-101092000D03*
X135366000Y-101092000D03*
X150654000Y-116840000D03*
X152654000Y-116840000D03*
D20*
X111209000Y-112522000D03*
X113284000Y-112522000D03*
X123401000Y-101092000D03*
X125476000Y-101092000D03*
D15*
X203380000Y-96952000D03*
X203380000Y-94952000D03*
D16*
X157534000Y-70866500D03*
X157534000Y-72941500D03*
D19*
X103712000Y-127682000D03*
X108712000Y-127682000D03*
X113712000Y-127682000D03*
X103712000Y-122682000D03*
X108712000Y-122682000D03*
X113712000Y-122682000D03*
D30*
X168494000Y-70444500D03*
D31*
X171034000Y-61173500D03*
D30*
X173574000Y-70444500D03*
D10*
X115570000Y-86646000D03*
X115570000Y-88646000D03*
D11*
X168688000Y-113538000D03*
X170688000Y-113538000D03*
D12*
X97843500Y-112386000D03*
D32*
X96769200Y-48904000D03*
X92298800Y-48904000D03*
D14*
X173228000Y-112311000D03*
X173228000Y-110236000D03*
D11*
X144558000Y-78994000D03*
X146558000Y-78994000D03*
D20*
X137392500Y-105410000D03*
X139467500Y-105410000D03*
D15*
X177546000Y-99806000D03*
X177546000Y-97806000D03*
D20*
X171407000Y-99060000D03*
X173482000Y-99060000D03*
D27*
X107463500Y-112522000D03*
X105388500Y-112522000D03*
D12*
X132534000Y-51404000D03*
D33*
X84336000Y-103802000D03*
D13*
X84336000Y-98802000D03*
X84336000Y-93802000D03*
D19*
X180246000Y-128016000D03*
X185246000Y-128016000D03*
X190246000Y-128016000D03*
X180246000Y-123016000D03*
X185246000Y-123016000D03*
X190246000Y-123016000D03*
D13*
X128534000Y-43904000D03*
X133534000Y-43904000D03*
D14*
X153670000Y-99081500D03*
X153670000Y-97006500D03*
D11*
X103902000Y-93726000D03*
X105902000Y-93726000D03*
X166402000Y-109728000D03*
X168402000Y-109728000D03*
D20*
X97768500Y-103886000D03*
X99843500Y-103886000D03*
D16*
X120396000Y-86571000D03*
X120396000Y-88646000D03*
D19*
X130636000Y-127762000D03*
X135636000Y-127762000D03*
X140636000Y-127762000D03*
X130636000Y-122762000D03*
X135636000Y-122762000D03*
X140636000Y-122762000D03*
D16*
X128534000Y-57866500D03*
X128534000Y-59941500D03*
D11*
X145574000Y-86614000D03*
X147574000Y-86614000D03*
D16*
X153034000Y-70866500D03*
X153034000Y-72941500D03*
D11*
X133620000Y-95250000D03*
X135620000Y-95250000D03*
X146050000Y-95250000D03*
X148050000Y-95250000D03*
D14*
X184912000Y-118661000D03*
X184912000Y-116586000D03*
D34*
X115282800Y-57904000D03*
X115282800Y-60904000D03*
X121785200Y-60904000D03*
X121785200Y-57904000D03*
D20*
X152611000Y-113538000D03*
X154686000Y-113538000D03*
D17*
X187325000Y-89477850D03*
X186055000Y-89477850D03*
X184785000Y-89477850D03*
X183515000Y-89477850D03*
X183515000Y-94926150D03*
X184785000Y-94926150D03*
X186055000Y-94926150D03*
X187325000Y-94926150D03*
D12*
X128524000Y-104902000D03*
D11*
X138954000Y-95250000D03*
X140954000Y-95250000D03*
D12*
X113534000Y-51404000D03*
M02*
