G04 #@! TF.GenerationSoftware,KiCad,Pcbnew,8.0.8*
G04 #@! TF.CreationDate,2025-02-17T02:27:16-05:00*
G04 #@! TF.ProjectId,PreAmpEQ,50726541-6d70-4455-912e-6b696361645f,1.0*
G04 #@! TF.SameCoordinates,Original*
G04 #@! TF.FileFunction,Soldermask,Bot*
G04 #@! TF.FilePolarity,Negative*
%FSLAX46Y46*%
G04 Gerber Fmt 4.6, Leading zero omitted, Abs format (unit mm)*
G04 Created by KiCad (PCBNEW 8.0.8) date 2025-02-17 02:27:16*
%MOMM*%
%LPD*%
G01*
G04 APERTURE LIST*
G04 Aperture macros list*
%AMRoundRect*
0 Rectangle with rounded corners*
0 $1 Rounding radius*
0 $2 $3 $4 $5 $6 $7 $8 $9 X,Y pos of 4 corners*
0 Add a 4 corners polygon primitive as box body*
4,1,4,$2,$3,$4,$5,$6,$7,$8,$9,$2,$3,0*
0 Add four circle primitives for the rounded corners*
1,1,$1+$1,$2,$3*
1,1,$1+$1,$4,$5*
1,1,$1+$1,$6,$7*
1,1,$1+$1,$8,$9*
0 Add four rect primitives between the rounded corners*
20,1,$1+$1,$2,$3,$4,$5,0*
20,1,$1+$1,$4,$5,$6,$7,0*
20,1,$1+$1,$6,$7,$8,$9,0*
20,1,$1+$1,$8,$9,$2,$3,0*%
G04 Aperture macros list end*
%ADD10C,3.400000*%
%ADD11C,2.154000*%
%ADD12C,2.004000*%
%ADD13O,2.404000X4.604000*%
%ADD14O,2.204000X4.204000*%
%ADD15O,4.204000X2.204000*%
%ADD16RoundRect,0.102000X-0.975000X0.975000X-0.975000X-0.975000X0.975000X-0.975000X0.975000X0.975000X0*%
%ADD17RoundRect,0.102000X0.975000X-0.975000X0.975000X0.975000X-0.975000X0.975000X-0.975000X-0.975000X0*%
G04 APERTURE END LIST*
D10*
X100034000Y-66904000D03*
D11*
X153034000Y-43904000D03*
X158034000Y-43904000D03*
D10*
X97589500Y-85726000D03*
X183822000Y-83086000D03*
X203380000Y-80952000D03*
X184848000Y-62992000D03*
D12*
X155020000Y-128016000D03*
X160020000Y-128016000D03*
X165020000Y-128016000D03*
X155020000Y-123016000D03*
X160020000Y-123016000D03*
X165020000Y-123016000D03*
D13*
X92084000Y-57404000D03*
D14*
X85784000Y-57404000D03*
D15*
X89184000Y-62204000D03*
D10*
X128778000Y-90424000D03*
D16*
X215380000Y-87004500D03*
D11*
X215380000Y-92004500D03*
X215380000Y-97004500D03*
D10*
X145034000Y-72904000D03*
X203380000Y-102952000D03*
X183568000Y-100358000D03*
X156534000Y-57904000D03*
D11*
X178534000Y-44904000D03*
X183534000Y-44904000D03*
D12*
X103712000Y-127682000D03*
X108712000Y-127682000D03*
X113712000Y-127682000D03*
X103712000Y-122682000D03*
X108712000Y-122682000D03*
X113712000Y-122682000D03*
D10*
X97843500Y-112386000D03*
X132534000Y-51404000D03*
D17*
X84336000Y-103802000D03*
D11*
X84336000Y-98802000D03*
X84336000Y-93802000D03*
D12*
X180246000Y-128016000D03*
X185246000Y-128016000D03*
X190246000Y-128016000D03*
X180246000Y-123016000D03*
X185246000Y-123016000D03*
X190246000Y-123016000D03*
D11*
X128534000Y-43904000D03*
X133534000Y-43904000D03*
D12*
X130636000Y-127762000D03*
X135636000Y-127762000D03*
X140636000Y-127762000D03*
X130636000Y-122762000D03*
X135636000Y-122762000D03*
X140636000Y-122762000D03*
D10*
X128524000Y-104902000D03*
X113534000Y-51404000D03*
M02*
